<svg version="1.2" xmlns="http://www.w3.org/2000/svg" viewBox="0 0 80 80" width="80" height="80">
	<style>
		.s0 { fill: #086cf9 } 
	</style>
	<path class="s0" d="m24.63 16.03c-0.69 0-1.25 0.56-1.25 1.26 0 1.52-1.23 2.75-2.75 2.75-1.52 0-2.76-1.23-2.76-2.75 0-1.52 1.24-2.76 2.76-2.76 0.69 0 1.25-0.56 1.25-1.25 0-0.69-0.56-1.25-1.25-1.25-2.9 0-5.26 2.36-5.26 5.26 0 2.9 2.36 5.26 5.26 5.26 2.9 0 5.26-2.36 5.26-5.26 0-0.7-0.56-1.26-1.26-1.26z"/>
	<path class="s0" d="m24.63 30.73c-0.69 0-1.25 0.56-1.25 1.25 0 1.52-1.23 2.76-2.75 2.76-1.52 0-2.76-1.24-2.76-2.76 0-1.52 1.24-2.75 2.76-2.75 0.69 0 1.25-0.56 1.25-1.25 0-0.7-0.56-1.26-1.25-1.26-2.9 0-5.26 2.36-5.26 5.26 0 2.9 2.36 5.26 5.26 5.26 2.9 0 5.26-2.36 5.26-5.26 0-0.69-0.56-1.25-1.26-1.25z"/>
	<path class="s0" d="m39.33 33.4h-9.35c-0.69 0-1.25 0.56-1.25 1.26 0 0.69 0.56 1.25 1.25 1.25h9.35c0.69 0 1.25-0.56 1.25-1.25 0-0.7-0.56-1.26-1.25-1.26z"/>
	<path class="s0" d="m39.33 28.06h-9.35c-0.69 0-1.25 0.56-1.25 1.25 0 0.69 0.56 1.25 1.25 1.25h9.35c0.69 0 1.25-0.56 1.25-1.25 0-0.69-0.56-1.25-1.25-1.25z"/>
	<path class="s0" d="m36.66 48.1h-6.68c-0.69 0-1.25 0.56-1.25 1.25 0 0.7 0.56 1.26 1.25 1.26h6.68c0.69 0 1.25-0.56 1.25-1.26 0-0.69-0.56-1.25-1.25-1.25z"/>
	<path class="s0" d="m39.33 42.76h-9.35c-0.69 0-1.25 0.56-1.25 1.25 0 0.69 0.56 1.25 1.25 1.25h9.35c0.69 0 1.25-0.56 1.25-1.25 0-0.69-0.56-1.25-1.25-1.25z"/>
	<path class="s0" d="m51.36 18.71h-21.38c-0.69 0-1.25 0.56-1.25 1.25 0 0.69 0.56 1.25 1.25 1.25h21.38c0.69 0 1.25-0.56 1.25-1.25 0-0.69-0.56-1.25-1.25-1.25z"/>
	<path class="s0" d="m46.01 13.36h-16.03c-0.69 0-1.25 0.56-1.25 1.25 0 0.7 0.56 1.26 1.25 1.26h16.03c0.69 0 1.26-0.56 1.26-1.26 0-0.69-0.57-1.25-1.26-1.25z"/>
	<path class="s0" d="m24.63 45.43c-0.69 0-1.25 0.56-1.25 1.25 0 1.52-1.23 2.76-2.75 2.76-1.52 0-2.76-1.24-2.76-2.76 0-1.52 1.24-2.75 2.76-2.75 0.69 0 1.25-0.57 1.25-1.26 0-0.69-0.56-1.25-1.25-1.25-2.9 0-5.26 2.36-5.26 5.26 0 2.9 2.36 5.26 5.26 5.26 2.9 0 5.26-2.36 5.26-5.26 0-0.69-0.56-1.25-1.26-1.25z"/>
	<path class="s0" d="m56.7 0h-45.43c-2.16 0-3.92 1.76-3.92 3.92v56.12c0 2.17 1.76 3.93 3.92 3.93h22.72c0.69 0 1.25-0.56 1.25-1.26 0-0.69-0.56-1.25-1.25-1.25h-22.72c-0.78 0-1.42-0.64-1.42-1.42v-56.12c0-0.78 0.64-1.41 1.42-1.41h45.43c0.78 0 1.42 0.63 1.42 1.41v41.42c0 0.7 0.56 1.26 1.25 1.26 0.7 0 1.26-0.56 1.26-1.26v-41.42c0-2.16-1.76-3.92-3.93-3.92z"/>
	<path class="s0" d="m68.53 50.8c-1.17-0.12-2.33 0.21-3.25 0.91-0.73-1.23-1.99-2.11-3.43-2.25-1.17-0.12-2.33 0.21-3.25 0.91-0.74-1.23-1.99-2.1-3.43-2.25-0.89-0.09-1.78 0.09-2.56 0.48v-15.95c0-1.29-0.55-2.54-1.51-3.41-0.96-0.86-2.26-1.29-3.55-1.16-2.32 0.23-4.13 2.32-4.13 4.76v15.99l-3.68 3.69c-1.96 1.95-2.75 4.73-2.11 7.42l2.79 11.88c1.14 4.82 5.38 8.18 10.33 8.18h11.3c5.84 0 10.6-4.76 10.6-10.61v-13.83c0-2.44-1.81-4.53-4.12-4.76zm1.62 18.59c0 4.47-3.64 8.1-8.1 8.1h-11.3c-3.78 0-7.02-2.56-7.89-6.24l-2.79-11.88c-0.44-1.84 0.1-3.74 1.44-5.08l1.91-1.91v4.32c0 0.69 0.56 1.25 1.26 1.25 0.69 0 1.25-0.56 1.25-1.25v-23.86c0-1.16 0.82-2.16 1.87-2.27 0.6-0.06 1.17 0.13 1.62 0.53 0.43 0.4 0.68 0.96 0.68 1.55v22.05c0 0.69 0.57 1.25 1.26 1.25 0.69 0 1.25-0.56 1.25-1.25v-2.01c0-0.59 0.25-1.15 0.69-1.55 0.44-0.4 1.02-0.58 1.62-0.52 1.04 0.1 1.87 1.1 1.87 2.26v3.15c0 0.69 0.56 1.26 1.25 1.26 0.69 0 1.25-0.57 1.25-1.26v-2c0-0.59 0.25-1.15 0.69-1.55 0.44-0.4 1.02-0.59 1.62-0.53 1.05 0.11 1.87 1.1 1.87 2.27v3.15c0 0.69 0.56 1.25 1.25 1.25 0.69 0 1.25-0.56 1.25-1.25v-2.01c0-0.58 0.25-1.15 0.69-1.54 0.44-0.4 1.02-0.59 1.62-0.53 1.05 0.1 1.87 1.1 1.87 2.27v13.83z"/>
</svg>