<svg version="1.2" xmlns="http://www.w3.org/2000/svg" viewBox="0 0 80 80" width="80" height="80">
	<defs>
		<clipPath clipPathUnits="userSpaceOnUse" id="cp1">
			<path d="m0 0h80v80h-80z"/>
		</clipPath>
	</defs>
	<style>
		.s0 { fill: #086cf9 } 
	</style>
	<g id="Clip-Path" clip-path="url(#cp1)">
		<g>
			<path class="s0" d="m55.53 80.01c1.81-0.01 3.39-1.22 3.87-2.96l3.69-13.76 13.95-3.74c2.13-0.57 3.39-2.76 2.82-4.89l-7.23-26.98 0.57-2.13c0.52-1.96-0.52-4-2.41-4.74l-3.26-12.17c-0.58-2.13-2.77-3.39-4.9-2.83l-23.81 6.38-19.96-5.35c-0.82-0.22-1.69-0.17-2.47 0.14l-4.99-4.98c-1.68-1.7-4.14-2.37-6.45-1.75-2.31 0.61-4.11 2.42-4.72 4.72-0.62 2.31 0.05 4.77 1.74 6.45l9.09 9.09-10.89 40.66c-0.57 2.13 0.69 4.32 2.82 4.9l51.51 13.8q0.5 0.14 1.03 0.14zm21.76-24.66c0.18 0.7-0.23 1.43-0.94 1.63l-12.47 3.33 7.36-27.47zm-13.97-46.96c0.34-0.1 0.71-0.05 1.02 0.13 0.31 0.17 0.53 0.47 0.62 0.81l2.84 10.62-23.82-6.38zm-60.56 53.48l10.49-39.17 17.01 17q0.21 0.21 0.49 0.31 0.01 0 0.03 0.01l8.78 2.94q0.41 0.13 0.85 0.13 0.77-0.01 1.41-0.42l15.33 4.12q0.17 0.05 0.35 0.05c0.67 0 1.23-0.5 1.32-1.16 0.09-0.67-0.33-1.29-0.98-1.46l-14.79-3.98q-0.02-0.34-0.12-0.66l-2.94-8.78q0-0.02-0.02-0.04-0.09-0.27-0.3-0.48l-20.6-20.61 50.61 13.55c0.35 0.09 0.64 0.32 0.81 0.62 0.18 0.31 0.23 0.68 0.14 1.02l-13.8 51.5c-0.09 0.34-0.31 0.63-0.62 0.81-0.31 0.17-0.67 0.22-1.01 0.13l-51.5-13.8c-0.34-0.09-0.63-0.31-0.81-0.62-0.18-0.3-0.23-0.67-0.13-1.01zm32.21-28.76l-11.31-11.31c-0.52-0.52-1.37-0.52-1.89 0-0.52 0.52-0.52 1.36 0 1.88l11.32 11.31-1.89 1.89-18.85-18.85 1.88-1.89 3.77 3.77c0.34 0.34 0.83 0.47 1.29 0.35 0.46-0.13 0.82-0.49 0.94-0.95 0.13-0.46 0-0.95-0.34-1.28l-3.77-3.77 1.88-1.89 18.85 18.85zm-26.39-18.85l5.66-5.66 1.88 1.89-5.65 5.65zm-5.88-7.54c0-1.61 0.97-3.07 2.46-3.69 1.5-0.62 3.22-0.28 4.36 0.87l2.83 2.82-5.66 5.66-2.82-2.83c-0.76-0.75-1.18-1.77-1.17-2.83zm37.69 33.71l-6.72-2.24 4.48-4.49 2.24 6.73z"/>
			<path class="s0" d="m61.63 31.38c0.67-0.01 1.24-0.5 1.33-1.16 0.08-0.67-0.34-1.29-0.98-1.47l-18.96-5.08c-0.47-0.13-0.97-0.01-1.31 0.33-0.35 0.34-0.48 0.84-0.35 1.31 0.12 0.47 0.5 0.83 0.97 0.94l18.96 5.08q0.17 0.05 0.34 0.05z"/>
			<path class="s0" d="m59.56 39.1c0.67 0 1.24-0.5 1.32-1.16 0.09-0.66-0.33-1.29-0.97-1.46l-12.89-3.45c-0.47-0.13-0.96 0-1.31 0.34-0.34 0.34-0.47 0.83-0.34 1.3 0.12 0.46 0.49 0.82 0.96 0.94l12.89 3.45q0.17 0.04 0.34 0.04z"/>
			<path class="s0" d="m18.43 41.92l-3.86-1.03c-0.47-0.14-0.97-0.01-1.31 0.33-0.35 0.34-0.48 0.84-0.35 1.3 0.13 0.47 0.5 0.83 0.97 0.94l3.86 1.04q0.17 0.05 0.35 0.05c0.67 0 1.23-0.5 1.32-1.16 0.09-0.67-0.33-1.29-0.98-1.47z"/>
			<path class="s0" d="m56.71 53.56c0.19-0.71-0.23-1.44-0.94-1.63l-29.61-7.94c-0.69-0.13-1.36 0.29-1.55 0.97-0.18 0.67 0.2 1.38 0.86 1.6l29.61 7.94q0.17 0.04 0.34 0.04c0.61 0 1.13-0.4 1.29-0.98z"/>
			<path class="s0" d="m16.36 49.65l-3.86-1.04c-0.71-0.18-1.44 0.24-1.63 0.95-0.19 0.71 0.23 1.44 0.94 1.63l3.86 1.03q0.17 0.05 0.35 0.05c0.67 0 1.23-0.5 1.32-1.16 0.09-0.66-0.33-1.29-0.98-1.46z"/>
			<path class="s0" d="m53.7 59.66l-29.61-7.94c-0.47-0.14-0.97-0.01-1.32 0.33-0.34 0.34-0.48 0.84-0.35 1.3 0.13 0.47 0.51 0.83 0.98 0.94l29.61 7.94q0.17 0.05 0.35 0.05c0.66 0 1.23-0.5 1.32-1.16 0.08-0.67-0.33-1.29-0.98-1.46z"/>
		</g>
	</g>
</svg>