<svg version="1.2" xmlns="http://www.w3.org/2000/svg" viewBox="0 0 80 74" width="80" height="74">
	<style>
		.s0 { fill: #086cf9 } 
	</style>
	<path class="s0" d="m76.77 4.69h-20.09c-0.55-2.67-2.91-4.69-5.74-4.69h-21.88c-2.83 0-5.19 2.02-5.74 4.69h-20.09c-1.78 0-3.23 1.45-3.23 3.22v50.57c0 1.78 1.45 3.23 3.23 3.23h28.12l-1.58 4.86h-3.28c-2.24 0-4.07 1.82-4.07 4.06 0 1.64 1.33 2.97 2.96 2.97h29.24c1.63 0 2.96-1.33 2.96-2.97 0-2.24-1.83-4.06-4.07-4.06h-3.28l-1.59-4.86h28.13c1.78 0 3.23-1.45 3.23-3.23v-50.57c0-1.77-1.45-3.22-3.23-3.22zm-32.09-2.35h6.26c1.94 0 3.51 1.58 3.51 3.52 0 1.94-1.57 3.51-3.51 3.51h-6.26c0.74-0.98 1.18-2.19 1.18-3.51 0-1.32-0.44-2.54-1.18-3.52zm-4.68 0c1.94 0 3.52 1.58 3.52 3.52 0 1.94-1.58 3.51-3.52 3.51-1.94 0-3.52-1.57-3.52-3.51 0-1.94 1.58-3.52 3.52-3.52zm-10.94 0h6.26c-0.74 0.98-1.18 2.2-1.18 3.52 0 1.32 0.44 2.53 1.18 3.51h-6.26c-1.94 0-3.51-1.57-3.51-3.51 0-1.94 1.57-3.52 3.51-3.52zm24.45 66.57c0.95 0 1.72 0.77 1.72 1.72 0 0.35-0.27 0.62-0.61 0.62h-29.24c-0.34 0-0.61-0.27-0.61-0.62 0-0.95 0.77-1.72 1.72-1.72h8.25c0.64 0 1.17-0.53 1.17-1.17 0-0.65-0.53-1.17-1.17-1.17h-2.5l1.58-4.86h12.36l1.58 4.86h-7.62c-0.64 0-1.17 0.52-1.17 1.17 0 0.64 0.53 1.17 1.17 1.17zm24.15-54.85h-54.06c-0.65 0-1.17 0.53-1.17 1.17 0 0.65 0.52 1.17 1.17 1.17h54.06v33.59h-8.87c-0.64 0-1.17 0.53-1.17 1.17 0 0.65 0.53 1.18 1.17 1.18h8.87v6.14c0 0.49-0.4 0.88-0.88 0.88h-73.55c-0.49 0-0.88-0.39-0.88-0.88v-6.14h61.05c0.65 0 1.17-0.53 1.17-1.18 0-0.64-0.52-1.17-1.17-1.17h-4.48c-0.85-2.47-2.94-4.37-5.53-4.95q-0.01-0.01-0.03-0.01l-8.88-1.8q-0.14-1.08-0.06-2.21c3.12-2.6 4.63-4.91 4.63-7.04q0.01-0.35-0.02-0.69c-0.05-0.51-0.08-2.86-0.07-5.72 0-2.33-0.9-4.52-2.54-6.17-1.65-1.65-3.84-2.56-6.17-2.56q0 0 0 0c-2.33 0-4.52 0.91-6.16 2.56-1.65 1.65-2.55 3.84-2.54 6.17 0.01 2.86-0.02 5.21-0.07 5.73q-0.03 0.32-0.03 0.68c0 2.13 1.51 4.43 4.61 7.03 0.06 0.74 0.04 1.45-0.06 2.18l-9.04 1.84q-0.02 0-0.03 0.01c-2.59 0.58-4.68 2.48-5.53 4.95h-19.05v-33.59h15.88c0.65 0 1.18-0.52 1.18-1.17 0-0.64-0.53-1.17-1.18-1.17h-15.88v-6.15c0-0.48 0.39-0.88 0.88-0.88h20.1c0.54 2.67 2.91 4.69 5.74 4.69h21.87c2.83 0 5.2-2.02 5.74-4.69h20.1c0.48 0 0.88 0.4 0.88 0.88v6.15zm-43.77 13.5c0-1.7 0.65-3.3 1.85-4.51 1.21-1.2 2.81-1.87 4.51-1.87 1.71 0 3.31 0.67 4.51 1.88 1.2 1.2 1.86 2.8 1.85 4.5-0.01 2.4 0.01 5.23 0.08 5.94q0.02 0.23 0.02 0.48c0 1.41-1.48 3.38-4.17 5.56-0.64 0.52-1.45 0.81-2.28 0.81q-0.01 0-0.01 0c-0.84 0-1.65-0.29-2.29-0.82-2.69-2.17-4.17-4.14-4.17-5.55q0-0.26 0.02-0.46c0.07-0.73 0.09-3.55 0.08-5.96zm8.31 16.3q-0.09 0.09-0.18 0.18c-0.51 0.55-1.13 0.85-1.76 0.85q-0.01 0-0.01 0c-0.63 0-1.25-0.3-1.77-0.85q-0.1-0.11-0.2-0.22 0.11-0.71 0.14-1.42 0.89 0.29 1.82 0.29h0.02q0.93 0 1.8-0.28 0.03 0.72 0.14 1.45zm-5.6 1.6q0.09 0.09 0.18 0.19c0.96 1.02 2.19 1.58 3.46 1.58h0.02c1.28 0 2.51-0.56 3.47-1.58q0.07-0.08 0.14-0.15l9.01 1.83c1.52 0.34 2.78 1.33 3.49 2.66h-32.42c0.71-1.33 1.97-2.32 3.49-2.66z"/>
</svg>