<svg version="1.2" xmlns="http://www.w3.org/2000/svg" viewBox="0 0 80 80" width="80" height="80">
	<style>
		.s0 { fill: #ffffff } 
		.s1 { fill: #086cf9 } 
	</style>
	<path fill-rule="evenodd" class="s0" d="m40 80c-22.12 0-40-17.88-40-40 0-22.12 17.88-40 40-40 22.12 0 40 17.88 40 40 0 22.12-17.88 40-40 40z"/>
	<path class="s1" d="m50.19 37.95l-19.2-10.8c-0.37-0.21-0.83-0.2-1.19 0.01-0.37 0.22-0.6 0.61-0.6 1.04v21.6c0 0.43 0.23 0.82 0.6 1.04q0.28 0.16 0.6 0.16 0.31 0 0.59-0.15l19.2-10.8c0.37-0.22 0.61-0.62 0.61-1.05 0-0.43-0.24-0.83-0.61-1.05z"/>
</svg>