<svg version="1.2" xmlns="http://www.w3.org/2000/svg" viewBox="0 0 80 80" width="80" height="80">
	<defs>
		<clipPath clipPathUnits="userSpaceOnUse" id="cp1">
			<path d="m0 0h80v80h-80z"/>
		</clipPath>
	</defs>
	<style>
		.s0 { fill: #086cf9 } 
	</style>
	<g id="Clip-Path" clip-path="url(#cp1)">
		<g>
			<path class="s0" d="m14.07 61.87c-1.12 0-2.2 0.28-3.15 0.8-5.03-6.45-7.79-14.46-7.79-22.67-0.01-20.33 16.54-36.87 36.87-36.87 2.47 0 4.94 0.24 7.34 0.73 0.85 0.17 1.67-0.38 1.84-1.23 0.18-0.84-0.37-1.67-1.22-1.84-2.6-0.52-5.28-0.79-7.96-0.79-10.68 0-20.73 4.16-28.28 11.72-7.56 7.55-11.72 17.6-11.72 28.28 0 8.99 3.05 17.76 8.61 24.79-0.72 1.07-1.1 2.32-1.1 3.64 0 1.75 0.68 3.4 1.92 4.64 1.24 1.24 2.89 1.92 4.64 1.92 1.75 0 3.4-0.68 4.64-1.92 1.24-1.24 1.92-2.89 1.92-4.64 0-1.75-0.68-3.4-1.92-4.64-1.24-1.24-2.89-1.92-4.64-1.92zm2.43 8.99c-0.65 0.65-1.51 1.01-2.43 1.01-0.92 0-1.78-0.36-2.43-1.01-0.65-0.65-1.01-1.51-1.01-2.43 0-0.92 0.36-1.78 1.01-2.43 0.65-0.65 1.51-1.01 2.43-1.01 0.92 0 1.78 0.36 2.43 1.01 0.65 0.65 1.01 1.51 1.01 2.43 0 0.92-0.36 1.78-1.01 2.43z"/>
			<path class="s0" d="m71.39 15.21c1.7-2.55 1.43-6.03-0.82-8.28-1.24-1.24-2.89-1.92-4.64-1.92-1.75 0-3.4 0.68-4.64 1.92-1.24 1.24-1.92 2.89-1.92 4.64 0 1.75 0.68 3.4 1.92 4.64 1.24 1.24 2.89 1.92 4.64 1.92 1.12 0 2.2-0.28 3.15-0.8 5.03 6.45 7.79 14.46 7.79 22.67 0 20.33-16.54 36.87-36.87 36.87-2.45 0-4.9-0.24-7.27-0.71-0.85-0.17-1.67 0.38-1.84 1.22-0.17 0.85 0.38 1.67 1.22 1.84 2.58 0.52 5.24 0.78 7.89 0.78 10.68 0 20.73-4.16 28.28-11.72 7.56-7.55 11.72-17.6 11.72-28.28 0-8.99-3.05-17.76-8.61-24.79zm-7.89-1.21c-0.65-0.65-1.01-1.51-1.01-2.43 0-0.92 0.36-1.78 1.01-2.43 0.65-0.65 1.51-1.01 2.43-1.01 0.92 0 1.78 0.36 2.43 1.01 1.34 1.34 1.34 3.52 0 4.86-0.65 0.65-1.51 1.01-2.43 1.01-0.92 0-1.78-0.36-2.43-1.01z"/>
			<path class="s0" d="m33.55 66.88c0 0.86 0.7 1.56 1.56 1.56h9.77c0.87 0 1.57-0.7 1.57-1.56v-3.03q3.09-0.84 5.86-2.43l2.14 2.13c0.29 0.3 0.69 0.46 1.11 0.46 0.41 0 0.81-0.16 1.1-0.46l6.91-6.91c0.61-0.61 0.61-1.6 0-2.21l-2.14-2.13q1.6-2.78 2.43-5.87h3.02c0.86 0 1.56-0.7 1.56-1.56v-9.77c0-0.86-0.7-1.56-1.56-1.56h-3.02q-0.83-3.09-2.43-5.87l2.12-2.12c0.3-0.29 0.46-0.69 0.46-1.11 0-0.41-0.16-0.81-0.46-1.1l-6.91-6.91c-0.61-0.61-1.6-0.61-2.21 0l-2.12 2.13q-2.77-1.6-5.86-2.43v-3c0-0.87-0.7-1.57-1.57-1.57h-9.77c-0.86 0-1.56 0.7-1.56 1.57v3q-3.09 0.83-5.86 2.43l-2.12-2.13c-0.61-0.61-1.6-0.61-2.21 0l-6.91 6.91c-0.3 0.29-0.46 0.69-0.46 1.1 0 0.42 0.16 0.82 0.46 1.11l2.12 2.12q-1.6 2.78-2.43 5.87h-3.01c-0.86 0-1.56 0.7-1.56 1.56l-0.01 9.77c0 0.41 0.16 0.81 0.46 1.11 0.29 0.29 0.69 0.45 1.1 0.45h3.02q0.83 3.09 2.43 5.87l-2.14 2.13c-0.61 0.61-0.61 1.6 0 2.21l6.91 6.91c0.29 0.3 0.69 0.46 1.1 0.46h0.01c0.41 0 0.81-0.16 1.1-0.46l2.14-2.13q2.77 1.59 5.86 2.43zm-5.25-8.75c-0.62-0.4-1.43-0.31-1.95 0.21l-1.9 1.9-4.7-4.7 1.9-1.9c0.52-0.52 0.61-1.34 0.21-1.95-1.42-2.2-2.42-4.6-2.96-7.15-0.16-0.72-0.79-1.23-1.53-1.23h-2.68v-6.65h2.68c0.74 0 1.37-0.51 1.53-1.23 0.54-2.55 1.54-4.95 2.96-7.14 0.4-0.62 0.31-1.43-0.21-1.95l-1.89-1.89 4.7-4.7 1.89 1.89c0.52 0.52 1.33 0.6 1.95 0.2 2.19-1.41 4.6-2.41 7.14-2.96 0.72-0.15 1.24-0.79 1.24-1.52v-2.67h6.64v2.67c0 0.73 0.52 1.37 1.24 1.52 2.54 0.55 4.95 1.55 7.14 2.96 0.62 0.4 1.43 0.32 1.95-0.2l1.89-1.89 4.7 4.7-1.89 1.88c-0.52 0.53-0.61 1.34-0.21 1.96 1.42 2.19 2.41 4.59 2.96 7.14 0.16 0.72 0.79 1.23 1.53 1.23h2.68v6.65h-2.68c-0.74 0-1.37 0.51-1.53 1.23-0.54 2.55-1.54 4.95-2.96 7.15-0.4 0.61-0.31 1.43 0.21 1.95l1.9 1.9-4.7 4.7-1.9-1.9c-0.52-0.52-1.33-0.61-1.95-0.21-2.19 1.42-4.6 2.41-7.14 2.96-0.72 0.15-1.24 0.79-1.24 1.53v2.69h-6.64v-2.69c0-0.74-0.52-1.38-1.24-1.53-2.54-0.55-4.95-1.54-7.14-2.96z"/>
			<path class="s0" d="m52.91 40c0-7.12-5.79-12.91-12.91-12.91-7.12 0-12.91 5.79-12.91 12.91 0 7.12 5.79 12.91 12.91 12.91 7.12 0 12.91-5.79 12.91-12.91zm-22.7 0c0-5.4 4.39-9.79 9.79-9.79 5.4 0 9.79 4.39 9.79 9.79 0 5.4-4.39 9.79-9.79 9.79-5.4 0-9.79-4.39-9.79-9.79z"/>
			<path class="s0" d="m54.39 5.91c0.41 0 0.81-0.17 1.1-0.46 0.29-0.29 0.46-0.69 0.46-1.11 0-0.4-0.17-0.81-0.46-1.1-0.29-0.29-0.69-0.46-1.1-0.46-0.42 0-0.82 0.17-1.11 0.46-0.29 0.29-0.46 0.69-0.46 1.1 0 0.42 0.17 0.82 0.46 1.11 0.29 0.29 0.69 0.46 1.11 0.46z"/>
			<path class="s0" d="m25.68 74.12c-0.41 0-0.81 0.17-1.1 0.46-0.29 0.29-0.46 0.69-0.46 1.1 0 0.41 0.17 0.82 0.46 1.11 0.29 0.29 0.69 0.45 1.1 0.45 0.41 0 0.82-0.16 1.11-0.45 0.29-0.29 0.45-0.7 0.45-1.11 0-0.41-0.16-0.81-0.45-1.1-0.29-0.29-0.7-0.46-1.11-0.46z"/>
		</g>
	</g>
</svg>